# xmcd CD database file
#
# Track frame offsets:
#	182
#	38967
#	66865
#	98852
#	119830
#	153635
#	177090
#
# Disc length: 2703 seconds
#
# Revision: 5
# Processed by: cddbd v1.5.1PL0 Copyright (c) Steve Scherf et al.
# Submitted via: CDex 1.51
#
DISCID=600a8d07
DTITLE=Toto Bissainthe - Toto Bissainthe chante Haïti
DYEAR=1989
DGENRE=Ethnic
TTITLE0=Soley Danmbalab
TTITLE1=Papaloko
TTITLE2=Ibo Ogoun
TTITLE3=Papadanmbala
TTITLE4=Lamizè pa Dous
TTITLE5=Dèy
TTITLE6=Rasanbléman
EXTD=avec Marie-Claude Benoît et Mariann Mathéus. Ces \n"chantssont pour la plupart des chants d'Africains mis en esclavage, tirés du culte Vaudou. Ils disent leur quotidien, la soufffrance de l'exil et le désir de l'Afrique, terre mythique de liberté. L
EXTD=a naissance du Vaudou sur une terre d'exil, premier langage commun de tous ces Africains mis en esclavage, d'ethnies différentes, fut un moment vital, créateur, une unificationculturelle qui allait transformer le monde: une ouverture des enfermés. C
EXTD='est ce moment-là que nous chantons.\n\nThese songs are mostly enslaved Africans' songs, from the Vaudou cult. They express the daily life of the slaves, their suffering in exile, their longing for Africa as a mythical land of freedom. The birth of 
EXTD=Vaudou in a land of exile, the first common langugeamong the enslaved Africans of different ethnic backgrounds wasa vital creative momoent, a cultural unification which was totransform the world: an opening for the confined. That is the moment we si
EXTD=ng about. YEAR: 1989
EXTT0=
EXTT1=
EXTT2=
EXTT3=
EXTT4=
EXTT5=
EXTT6=
PLAYORDER=
